<svg width="12" height="8" viewBox="0 0 12 8" fill="none" xmlns="http://www.w3.org/2000/svg">
<path id="Vector" fill-rule="evenodd" clip-rule="evenodd" d="M11.7428 1.02776C11.823 1.10738 11.8867 1.20213 11.9302 1.30651C11.9737 1.41089 11.9961 1.52285 11.9961 1.63592C11.9961 1.74899 11.9737 1.86095 11.9302 1.96533C11.8867 2.06971 11.823 2.1644 11.7428 2.24403L6.75769 7.22908C6.65824 7.32879 6.54009 7.40791 6.41001 7.46188C6.27994 7.51586 6.14048 7.54365 5.99965 7.54365C5.85882 7.54365 5.71936 7.51586 5.58929 7.46188C5.45921 7.40791 5.34106 7.32879 5.2416 7.22908L0.248 2.24403C0.0867105 2.08274 -0.00390625 1.86402 -0.00390625 1.63592C-0.00390625 1.40782 0.0867105 1.18905 0.248 1.02776C0.409289 0.866468 0.628037 0.775878 0.856134 0.775878C1.08423 0.775878 1.30301 0.866468 1.4643 1.02776L5.99536 5.5674L10.5265 1.02776C10.6061 0.947476 10.7008 0.883771 10.8052 0.840286C10.9096 0.7968 11.0215 0.774414 11.1346 0.774414C11.2477 0.774414 11.3596 0.7968 11.464 0.840286C11.5684 0.883771 11.6631 0.947476 11.7428 1.02776Z" fill="#333333"/>
</svg>
