<svg width="15" height="13" viewBox="0 0 15 13" fill="none" xmlns="http://www.w3.org/2000/svg">
<path fill-rule="evenodd" clip-rule="evenodd" d="M7.73991 0.290108C7.81929 0.206912 7.91471 0.140685 8.02042 0.0954361C8.12613 0.0501873 8.23992 0.0268555 8.3549 0.0268555C8.46989 0.0268555 8.58368 0.0501873 8.68939 0.0954361C8.7951 0.140685 8.89054 0.206912 8.96991 0.290108L14.2199 5.54011C14.3031 5.61948 14.3693 5.71491 14.4146 5.82062C14.4598 5.92633 14.4832 6.04012 14.4832 6.15511C14.4832 6.27009 14.4598 6.38388 14.4146 6.48959C14.3693 6.5953 14.3031 6.69074 14.2199 6.77011L8.99991 11.9901C8.83677 12.1531 8.61555 12.2447 8.3849 12.2447C8.15425 12.2447 7.93305 12.1531 7.76991 11.9901C7.68672 11.9107 7.62049 11.8153 7.57524 11.7096C7.52999 11.6039 7.50665 11.4901 7.50665 11.3751C7.50665 11.2601 7.52999 11.1463 7.57524 11.0406C7.62049 10.9349 7.68672 10.8395 7.76991 10.7601L11.5199 7.00011H1.35991C1.23715 7.01325 1.11299 7.00042 0.995514 6.96243C0.878036 6.92445 0.769857 6.86217 0.678024 6.77964C0.586192 6.69711 0.512766 6.59619 0.462494 6.48342C0.412222 6.37065 0.38623 6.24857 0.38623 6.12511C0.38623 6.00164 0.412222 5.87956 0.462494 5.76679C0.512766 5.65403 0.586192 5.5531 0.678024 5.47057C0.769857 5.38805 0.878036 5.32577 0.995514 5.28779C1.11299 5.24981 1.23715 5.23696 1.35991 5.25011H11.4899L7.73991 1.4901C7.58114 1.33078 7.49199 1.11503 7.49199 0.890106C7.49199 0.665182 7.58114 0.449428 7.73991 0.290108Z" fill="#FFBD1E"/>
</svg>
