<svg width="46" height="47" viewBox="0 0 46 47" fill="none" xmlns="http://www.w3.org/2000/svg">
<g id="Group 427320211">
<g id="Combined Shape">
<path fill-rule="evenodd" clip-rule="evenodd" d="M39.117 11.0997L41.7733 6.49882C43.5123 9.08135 43.7106 12.6345 42.2406 15.1805C40.8668 17.56 38.1984 18.7787 35.4162 18.5857L20.883 43.7579L14.2608 39.9345L28.794 14.7624C27.2357 12.4494 26.9569 9.5291 28.3307 7.14963C29.8006 4.60356 32.9768 2.99868 36.0829 3.21345L33.4265 7.81435C33.0635 8.44324 33.3353 9.27992 34.0337 9.68313L37.195 11.5083C37.8934 11.9115 38.7539 11.7286 39.117 11.0997Z" fill="#DC6000"/>
<path d="M41.7733 6.49882L42.188 6.21954C42.0917 6.07647 41.9284 5.99316 41.7561 5.99911C41.5837 6.00507 41.4265 6.09944 41.3403 6.24882L41.7733 6.49882ZM39.117 11.0997L39.55 11.3497L39.117 11.0997ZM35.4162 18.5857L35.4508 18.0869C35.2602 18.0736 35.0787 18.1702 34.9832 18.3357L35.4162 18.5857ZM20.883 43.7579L20.633 44.1909C20.7479 44.2572 20.8844 44.2751 21.0125 44.2408C21.1405 44.2065 21.2498 44.1227 21.3161 44.0079L20.883 43.7579ZM14.2608 39.9345L13.8278 39.6845C13.6897 39.9237 13.7717 40.2295 14.0108 40.3675L14.2608 39.9345ZM28.794 14.7624L29.227 15.0124C29.3225 14.8469 29.3154 14.6415 29.2086 14.483L28.794 14.7624ZM36.0829 3.21345L36.5159 3.46345C36.6021 3.31408 36.6053 3.1308 36.5243 2.97854C36.4432 2.82628 36.2894 2.72654 36.1174 2.71464L36.0829 3.21345ZM33.4265 7.81435L32.9935 7.56435L33.4265 7.81435ZM34.0337 9.68313L33.7837 10.1161L34.0337 9.68313ZM37.195 11.5083L37.445 11.0753L37.195 11.5083ZM41.3403 6.24882L38.684 10.8497L39.55 11.3497L42.2063 6.74882L41.3403 6.24882ZM42.6736 15.4305C44.2467 12.7058 44.0249 8.9474 42.188 6.21954L41.3586 6.77809C42.9997 9.21531 43.1744 12.5632 41.8076 14.9305L42.6736 15.4305ZM35.3816 19.0845C38.3256 19.2887 41.1907 17.999 42.6736 15.4305L41.8076 14.9305C40.543 17.1209 38.0712 18.2687 35.4508 18.0869L35.3816 19.0845ZM34.9832 18.3357L20.45 43.5079L21.3161 44.0079L35.8492 18.8357L34.9832 18.3357ZM21.133 43.3248L14.5108 39.5015L14.0108 40.3675L20.633 44.1909L21.133 43.3248ZM14.6938 40.1845L29.227 15.0124L28.361 14.5124L13.8278 39.6845L14.6938 40.1845ZM27.8976 6.89963C26.4147 9.46816 26.7304 12.5943 28.3793 15.0418L29.2086 14.483C27.741 12.3046 27.499 9.59003 28.7637 7.39963L27.8976 6.89963ZM36.1174 2.71464C32.8365 2.48778 29.4708 4.17486 27.8976 6.89963L28.7637 7.39963C30.1305 5.03227 33.1171 3.50957 36.0484 3.71226L36.1174 2.71464ZM33.8596 8.06435L36.5159 3.46345L35.6499 2.96345L32.9935 7.56435L33.8596 8.06435ZM34.2837 9.25012C33.7806 8.95968 33.6586 8.41251 33.8596 8.06435L32.9935 7.56435C32.4684 8.47396 32.8899 9.60016 33.7837 10.1161L34.2837 9.25012ZM37.445 11.0753L34.2837 9.25012L33.7837 10.1161L36.945 11.9413L37.445 11.0753ZM38.684 10.8497C38.4829 11.1979 37.9481 11.3658 37.445 11.0753L36.945 11.9413C37.8387 12.4573 39.0248 12.2593 39.55 11.3497L38.684 10.8497Z" fill="white"/>
</g>
<g id="settings">
<path id="Shape" d="M26.8408 35.0329C26.4675 35.8789 26.6466 36.8669 27.2932 37.5279L27.3755 37.6101C27.8903 38.1244 28.1796 38.8222 28.1796 39.5499C28.1796 40.2776 27.8903 40.9754 27.3755 41.4897C26.8612 42.0045 26.1634 42.2938 25.4357 42.2938C24.708 42.2938 24.0102 42.0045 23.4959 41.4897L23.4137 41.4074C22.7527 40.7609 21.7647 40.5817 20.9187 40.9551C20.0901 41.3102 19.5514 42.1235 19.5478 43.0251V43.2581C19.5478 44.7723 18.3203 45.9998 16.8061 45.9998C15.2919 45.9998 14.0644 44.7723 14.0644 43.2581V43.1347C14.0427 42.2062 13.4556 41.3853 12.5839 41.0647C11.7379 40.6914 10.7499 40.8705 10.0889 41.5171L10.0066 41.5994C9.49237 42.1142 8.79454 42.4035 8.06686 42.4035C7.33918 42.4035 6.64135 42.1142 6.12709 41.5994C5.61225 41.0851 5.32297 40.3873 5.32297 39.6596C5.32297 38.9319 5.61225 38.2341 6.12709 37.7198L6.20934 37.6376C6.85593 36.9766 7.03507 35.9885 6.66172 35.1426C6.30658 34.3139 5.49326 33.7753 4.59172 33.7717H4.35867C2.84446 33.7717 1.61694 32.5442 1.61694 31.03C1.61694 29.5158 2.84446 28.2883 4.35867 28.2883H4.48205C5.41058 28.2665 6.23146 27.6794 6.55206 26.8077C6.92541 25.9618 6.74626 24.9738 6.09967 24.3128L6.01742 24.2305C5.50258 23.7162 5.21331 23.0184 5.21331 22.2907C5.21331 21.5631 5.50258 20.8652 6.01742 20.351C6.53168 19.8361 7.22951 19.5469 7.95719 19.5469C8.68487 19.5469 9.3827 19.8361 9.89696 20.351L9.97922 20.4332C10.6402 21.0798 11.6282 21.259 12.4742 20.8856H12.5839C13.4125 20.5305 13.9511 19.7171 13.9547 18.8156V18.5825C13.9547 17.0683 15.1822 15.8408 16.6965 15.8408C18.2107 15.8408 19.4382 17.0683 19.4382 18.5825V18.7059C19.4418 19.6075 19.9804 20.4208 20.809 20.7759C21.655 21.1493 22.643 20.9701 23.304 20.3235L23.3863 20.2413C23.9005 19.7265 24.5984 19.4372 25.326 19.4372C26.0537 19.4372 26.7516 19.7265 27.2658 20.2413C27.7806 20.7556 28.0699 21.4534 28.0699 22.1811C28.0699 22.9087 27.7806 23.6066 27.2658 24.1208L27.1836 24.2031C26.537 24.8641 26.3578 25.8521 26.7312 26.6981V26.8077C27.0863 27.6364 27.8996 28.175 28.8012 28.1786H29.0342C30.5484 28.1786 31.776 29.4061 31.776 30.9203C31.776 32.4345 30.5484 33.6621 29.0342 33.6621H28.9109C28.0093 33.6657 27.196 34.2043 26.8408 35.0329Z" fill="#89A7FE" stroke="white" stroke-width="2" stroke-linecap="round" stroke-linejoin="round"/>
<path id="Shape_2" d="M26.8408 35.0329C26.4675 35.8789 26.6466 36.8669 27.2932 37.5279L27.3755 37.6101C27.8903 38.1244 28.1796 38.8222 28.1796 39.5499C28.1796 40.2776 27.8903 40.9754 27.3755 41.4897C26.8612 42.0045 26.1634 42.2938 25.4357 42.2938C24.708 42.2938 24.0102 42.0045 23.4959 41.4897L23.4137 41.4074C22.7527 40.7609 21.7647 40.5817 20.9187 40.9551C20.0901 41.3102 19.5514 42.1235 19.5478 43.0251V43.2581C19.5478 44.7723 18.3203 45.9998 16.8061 45.9998C15.2919 45.9998 14.0644 44.7723 14.0644 43.2581V43.1347C14.0427 42.2062 13.4556 41.3853 12.5839 41.0647C11.7379 40.6914 10.7499 40.8705 10.0889 41.5171L10.0066 41.5994C9.49237 42.1142 8.79454 42.4035 8.06686 42.4035C7.33918 42.4035 6.64135 42.1142 6.12709 41.5994C5.61225 41.0851 5.32297 40.3873 5.32297 39.6596C5.32297 38.9319 5.61225 38.2341 6.12709 37.7198L6.20934 37.6376C6.85593 36.9766 7.03507 35.9885 6.66172 35.1426C6.30658 34.3139 5.49326 33.7753 4.59172 33.7717H4.35867C2.84446 33.7717 1.61694 32.5442 1.61694 31.03C1.61694 29.5158 2.84446 28.2883 4.35867 28.2883H4.48205C5.41058 28.2665 6.23146 27.6794 6.55206 26.8077C6.92541 25.9618 6.74626 24.9738 6.09967 24.3128L6.01742 24.2305C5.50258 23.7162 5.21331 23.0184 5.21331 22.2907C5.21331 21.5631 5.50258 20.8652 6.01742 20.351C6.53168 19.8361 7.22951 19.5469 7.95719 19.5469C8.68487 19.5469 9.3827 19.8361 9.89696 20.351L9.97922 20.4332C10.6402 21.0798 11.6282 21.259 12.4742 20.8856H12.5839C13.4125 20.5305 13.9511 19.7171 13.9547 18.8156V18.5825C13.9547 17.0683 15.1822 15.8408 16.6965 15.8408C18.2107 15.8408 19.4382 17.0683 19.4382 18.5825V18.7059C19.4418 19.6075 19.9804 20.4208 20.809 20.7759C21.655 21.1493 22.643 20.9701 23.304 20.3235L23.3863 20.2413C23.9005 19.7265 24.5984 19.4372 25.326 19.4372C26.0537 19.4372 26.7516 19.7265 27.2658 20.2413C27.7806 20.7556 28.0699 21.4534 28.0699 22.1811C28.0699 22.9087 27.7806 23.6066 27.2658 24.1208L27.1836 24.2031C26.537 24.8641 26.3578 25.8521 26.7312 26.6981V26.8077C27.0863 27.6364 27.8996 28.175 28.8012 28.1786H29.0342C30.5484 28.1786 31.776 29.4061 31.776 30.9203C31.776 32.4345 30.5484 33.6621 29.0342 33.6621H28.9109C28.0093 33.6657 27.196 34.2043 26.8408 35.0329Z" fill="url(#paint0_linear_40680_51355)"/>
<path id="Oval" d="M16.6963 35.0328C18.9677 35.0328 20.8089 33.1915 20.8089 30.9202C20.8089 28.6489 18.9677 26.8076 16.6963 26.8076C14.425 26.8076 12.5837 28.6489 12.5837 30.9202C12.5837 33.1915 14.425 35.0328 16.6963 35.0328Z" fill="white"/>
</g>
</g>
<defs>
<linearGradient id="paint0_linear_40680_51355" x1="16.6965" y1="15.8408" x2="16.6965" y2="45.9998" gradientUnits="userSpaceOnUse">
<stop offset="0.375" stop-color="#F27123"/>
<stop offset="1" stop-color="#FF9436"/>
</linearGradient>
</defs>
</svg>
